<svg width="168" height="130" viewBox="0 0 168 130" fill="none" xmlns="http://www.w3.org/2000/svg">
<g clip-path="url(#clip0_18870_138530)">
<path d="M101.405 96.1893C100.285 95.9293 99.815 96.2393 99.775 97.2393C99.695 99.2393 99.715 101.239 99.715 103.229C99.705 108.059 99.835 112.899 99.655 117.719C99.505 121.729 97.835 123.399 93.885 123.899C92.245 124.109 90.565 124.069 88.895 124.069C65.905 124.069 42.915 124.089 19.935 124.069C17.275 124.069 14.605 123.919 11.955 123.779C10.965 123.729 9.92501 123.649 9.01501 123.309C6.93501 122.529 5.46501 119.559 6.15501 117.519C6.84502 115.479 8.68501 116.569 10.025 116.339C10.835 116.199 11.685 116.309 12.515 116.309C31.505 116.309 50.495 116.309 69.485 116.309C70.815 116.309 72.165 116.369 73.475 116.199C74.895 116.009 75.965 115.289 76.005 113.629C76.035 111.899 74.945 111.289 73.485 111.169C72.165 111.059 70.825 111.089 69.495 111.089C57.005 111.089 44.505 111.109 32.015 111.079C24.525 111.059 17.025 110.989 9.53501 110.909C6.13501 110.869 6.11501 110.829 6.05501 107.259C6.01501 104.929 6.05501 102.599 6.05501 100.259C6.05501 87.4293 6.03501 74.6093 6.07501 61.7793C6.08501 57.7093 6.17501 57.6393 10.315 57.5993C15.145 57.5493 19.975 57.6593 24.805 57.5493C26.805 57.5093 28.315 58.0793 29.605 59.6193C31.215 61.5293 32.955 63.3293 34.685 65.1293C35.945 66.4393 37.505 67.3093 39.005 65.7193C40.355 64.2793 41.915 64.3393 43.575 64.3393C48.405 64.3393 53.235 64.3393 58.065 64.3393C63.225 64.3393 68.395 64.2693 73.555 64.3593C75.555 64.3993 76.185 63.5893 76.145 61.7093C76.095 59.2193 76.095 59.1293 73.265 59.1193C62.775 59.1093 52.275 59.0493 41.785 59.1493C38.115 59.1893 34.915 58.7493 32.625 55.3693C31.285 53.3993 29.225 52.3893 26.615 52.4393C20.285 52.5593 13.955 52.3893 7.62501 52.5193C3.44501 52.5993 1.21501 54.8693 0.965015 58.9993C0.855015 60.8293 0.935015 62.6593 0.935015 64.4993C0.935015 82.3193 0.915015 100.149 0.945015 117.969C0.955015 123.609 3.36502 127.169 8.19501 128.559C10.075 129.099 12.115 129.269 14.085 129.279C26.915 129.339 39.735 129.309 52.565 129.309C66.055 129.309 79.555 129.359 93.045 129.289C100.535 129.249 104.795 124.959 104.905 117.509C104.985 111.849 104.955 106.179 104.905 100.519C104.875 97.1493 104.555 96.9293 101.425 96.2093L101.405 96.1893Z" fill="#D1D5DB"/>
<path d="M164.255 100.23C160.155 95.8599 155.705 91.83 151.605 87.47C148.085 83.7299 144.395 81.0299 138.915 83.0299C138.495 83.18 137.575 82.7599 137.315 82.3399C137.055 81.9099 137.145 81.07 137.395 80.57C137.915 79.54 138.675 78.6299 139.275 77.6299C142.335 72.5199 144.025 66.9399 143.795 61.0299C143.025 41.1199 126.875 30.0899 112.705 30.4499C92.155 30.0599 76.355 50.28 82.895 71.05C89.295 91.38 112.935 98.3199 129.105 88C129.945 87.4599 130.735 86.8499 131.595 86.3499C132.805 85.6399 133.945 86.1899 133.945 87.5199C133.945 88.3399 133.745 89.17 133.565 89.97C132.875 92.9799 133.695 95.6499 135.755 97.7799C140.965 103.16 146.265 108.45 151.635 113.67C153.895 115.86 156.675 116.79 159.885 115.94C167.195 114 169.545 105.89 164.255 100.25V100.23ZM112.545 87.48C98.445 87.73 86.605 75.5299 86.645 61.4199C86.685 48.3999 97.435 35.77 112.335 35.56C126.505 35.36 138.855 47.3199 138.565 61.4599C138.205 78.7399 124.515 87.69 112.555 87.48H112.545ZM160.785 109.51C159.205 111.18 156.645 111.27 154.595 109.31C149.705 104.61 144.905 99.8199 140.205 94.9299C138.105 92.7399 138.305 89.9799 140.375 88.4499C141.005 87.9799 141.815 87.75 142.785 87.3C143.885 87.99 145.135 88.5099 146.035 89.3899C150.775 94.0099 155.475 98.6699 160.075 103.42C162.315 105.73 162.415 107.79 160.775 109.53L160.785 109.51Z" fill="#D1D5DB"/>
<path d="M10.825 45.6297C12.125 45.6297 13.175 44.5797 13.175 43.2797C13.175 41.9797 12.125 40.9297 10.825 40.9297C9.52498 40.9297 8.47498 41.9797 8.47498 43.2797C8.47498 44.5797 9.52498 45.6297 10.825 45.6297Z" fill="#D1D5DB"/>
<path d="M13.175 35.3992C14.475 35.3992 15.525 34.3492 15.525 33.0492C15.525 31.7492 14.475 30.6992 13.175 30.6992C11.875 30.6992 10.825 31.7492 10.825 33.0492C10.825 34.3492 11.875 35.3992 13.175 35.3992Z" fill="#D1D5DB"/>
<path d="M15.525 25.1609C16.825 25.1609 17.875 24.1109 17.875 22.8109C17.875 21.5109 16.825 20.4609 15.525 20.4609C14.225 20.4609 13.175 21.5109 13.175 22.8109C13.175 24.1109 14.225 25.1609 15.525 25.1609Z" fill="#D1D5DB"/>
<path d="M17.865 14.9305C19.165 14.9305 20.215 13.8805 20.215 12.5805C20.215 11.2805 19.165 10.2305 17.865 10.2305C16.565 10.2305 15.515 11.2805 15.515 12.5805C15.515 13.8805 16.565 14.9305 17.865 14.9305Z" fill="#D1D5DB"/>
<path d="M20.215 4.68828C21.515 4.68828 22.565 3.63828 22.565 2.33828C22.565 1.03828 21.515 -0.0117188 20.215 -0.0117188C18.915 -0.0117188 17.865 1.03828 17.865 2.33828C17.865 3.63828 18.915 4.68828 20.215 4.68828Z" fill="#D1D5DB"/>
<path d="M32.245 6.77031C33.545 6.77031 34.595 5.72031 34.595 4.42031C34.595 3.12031 33.545 2.07031 32.245 2.07031C30.945 2.07031 29.895 3.12031 29.895 4.42031C29.895 5.72031 30.945 6.77031 32.245 6.77031Z" fill="#D1D5DB"/>
<path d="M44.285 8.84844C45.585 8.84844 46.635 7.79844 46.635 6.49844C46.635 5.19844 45.585 4.14844 44.285 4.14844C42.985 4.14844 41.935 5.19844 41.935 6.49844C41.935 7.79844 42.985 8.84844 44.285 8.84844Z" fill="#D1D5DB"/>
<path d="M56.325 10.9305C57.625 10.9305 58.675 9.88047 58.675 8.58047C58.675 7.28047 57.625 6.23047 56.325 6.23047C55.025 6.23047 53.975 7.28047 53.975 8.58047C53.975 9.88047 55.025 10.9305 56.325 10.9305Z" fill="#D1D5DB"/>
<path d="M68.355 13.0086C69.655 13.0086 70.705 11.9586 70.705 10.6586C70.705 9.35859 69.655 8.30859 68.355 8.30859C67.055 8.30859 66.005 9.35859 66.005 10.6586C66.005 11.9586 67.055 13.0086 68.355 13.0086Z" fill="#D1D5DB"/>
<path d="M80.395 15.0906C81.695 15.0906 82.745 14.0406 82.745 12.7406C82.745 11.4406 81.695 10.3906 80.395 10.3906C79.095 10.3906 78.045 11.4406 78.045 12.7406C78.045 14.0406 79.095 15.0906 80.395 15.0906Z" fill="#D1D5DB"/>
<path d="M92.425 17.1805C93.7229 17.1805 94.775 16.1283 94.775 14.8305C94.775 13.5326 93.7229 12.4805 92.425 12.4805C91.1271 12.4805 90.075 13.5326 90.075 14.8305C90.075 16.1283 91.1271 17.1805 92.425 17.1805Z" fill="#D1D5DB"/>
<path d="M104.465 19.2508C105.765 19.2508 106.815 18.2008 106.815 16.9008C106.815 15.6008 105.765 14.5508 104.465 14.5508C103.165 14.5508 102.115 15.6008 102.115 16.9008C102.115 18.2008 103.165 19.2508 104.465 19.2508Z" fill="#D1D5DB"/>
<path d="M50.625 42.8611L55.855 38.9111L59.785 44.1211L62.895 41.7711L58.965 36.5711L64.195 32.6211L61.915 29.6011L56.685 33.5511L52.775 28.3711L49.675 30.7111L53.575 35.8911L48.345 39.8411L50.625 42.8611Z" fill="#D1D5DB"/>
<path d="M114.465 72.5898H107.665V79.5499H114.465V72.5898Z" fill="#D1D5DB"/>
<path d="M120.685 46.3091C119.655 45.4091 118.405 44.7291 116.925 44.2491C115.455 43.7791 113.835 43.5391 112.075 43.5391C109.335 43.5391 106.975 44.0491 105.015 45.0791C103.055 46.0991 101.325 47.4491 99.835 49.1291L103.645 53.1891C104.865 51.8991 106.145 50.9091 107.475 50.2191C108.815 49.5291 110.295 49.1791 111.915 49.1791C113.745 49.1791 115.175 49.6291 116.205 50.5291C117.235 51.4291 117.755 52.6091 117.755 54.0791C117.755 55.8091 117.005 57.1791 115.495 58.1591C113.985 59.1491 111.615 59.7091 108.365 59.8391L108.115 60.0891L109.135 68.3191H113.245L113.755 64.2091C115.175 63.9691 116.505 63.5991 117.745 63.0891C118.985 62.5791 120.055 61.9191 120.965 61.1091C121.875 60.2991 122.605 59.2991 123.145 58.1091C123.685 56.9291 123.955 55.5191 123.955 53.8991C123.955 52.2791 123.665 50.8691 123.095 49.5791C122.515 48.2891 121.715 47.1991 120.685 46.3091Z" fill="#D1D5DB"/>
</g>
<defs>
<clipPath id="clip0_18870_138530">
<rect width="166.25" height="129.32" fill="white" transform="translate(0.875)"/>
</clipPath>
</defs>
</svg>
